<svg width="154" height="154" viewBox="0 0 154 154" fill="none" xmlns="http://www.w3.org/2000/svg">
<circle cx="77" cy="77" r="77" fill="#050719"/>
<path d="M50.0476 15.9466L51.3837 18.4072L41.8488 23.5849L37.1722 14.9727L46.7071 9.79506L48.0433 12.2557L40.969 16.0972L41.4567 16.9953L47.9159 13.4878L48.918 15.3333L42.4589 18.8408L42.9733 19.7881L50.0476 15.9466ZM56.5856 16.7628L52.643 17.8955L56.1342 11.7943L49.9371 8.47643L53.8662 7.34768L57.5632 9.31538L59.6522 5.68549L63.5813 4.55674L60.0767 10.6617L66.2872 13.9758L62.3446 15.1084L58.6611 13.1368L56.5856 16.7628ZM74.6486 10.2282L70.2187 10.4964L70.4057 13.5847L67.6108 13.7539L67.0185 3.97185L74.2433 3.53442C76.9543 3.37027 77.996 4.82197 78.1043 6.6107C78.2177 8.48327 77.3457 10.0649 74.6486 10.2282ZM74.0632 6.35045L69.9826 6.59751L70.0495 7.70149L74.13 7.45443C75.206 7.38928 75.2056 7.15087 75.187 6.84343C75.1676 6.52202 75.1392 6.2853 74.0632 6.35045ZM90.9741 11.756L90.6157 14.533L79.8549 13.1442L81.1093 3.42484L83.8862 3.78322L82.9903 10.7256L90.9741 11.756ZM98.7664 9.7739C97.7195 9.41745 96.6101 9.80881 96.1679 11.1076C95.7167 12.4329 96.3658 13.3933 97.4261 13.7543L99.4803 14.4537C100.474 14.7921 101.628 14.4453 102.079 13.12C102.521 11.8212 101.828 10.8162 100.807 10.4688L98.7664 9.7739ZM96.3911 16.3598C94.0453 15.5611 92.4796 13.2534 93.5173 10.2052C94.5416 7.19676 97.2038 6.28406 99.5363 7.07819L101.71 7.81817C104.122 8.63937 105.767 11.0185 104.743 14.0269C103.7 17.0883 101.003 17.93 98.5779 17.1043L96.3911 16.3598ZM110.705 22.9209L110.163 19.0204L108.375 17.9747L106.813 20.6457L104.396 19.2326L109.342 10.7723L115.59 14.4252C117.935 15.796 117.994 17.5817 117.09 19.1288C116.284 20.5066 115.001 21.3136 113.21 20.6881L113.823 24.7438L110.705 22.9209ZM113.875 16.6658L110.346 14.6026L109.788 15.5575L113.317 17.6206C114.248 18.1647 114.38 17.9663 114.535 17.7004C114.698 17.4224 114.806 17.2099 113.875 16.6658ZM124.935 30.6006L123.088 32.7049L114.934 25.5474L121.399 18.1822L129.553 25.3397L127.706 27.4441L121.656 22.1337L120.982 22.9018L126.506 27.7504L125.12 29.3286L119.596 24.48L118.885 25.2902L124.935 30.6006ZM131.753 44.5179L130.459 41.9562L139.206 37.5378L140.841 40.7744L136.402 47.0159L144.041 47.1101L145.72 50.4341L136.973 54.8525L135.628 52.1907L140.189 49.8869L134.429 49.8164L132.983 46.9547L136.376 42.1825L131.753 44.5179ZM145.373 59.1428C145.111 58.0682 144.185 57.3427 142.852 57.6675C141.492 57.9988 141.03 59.0622 141.295 60.1504L141.809 62.2588C142.057 63.2789 142.969 64.0654 144.33 63.7341C145.663 63.4093 146.138 62.2849 145.883 61.2375L145.373 59.1428ZM138.542 60.6771C137.955 58.2695 139.061 55.7091 142.189 54.947C145.277 54.1949 147.477 55.95 148.06 58.344L148.603 60.5748C149.206 63.0504 148.083 65.7159 144.996 66.4681C141.854 67.2335 139.695 65.4107 139.088 62.9215L138.542 60.6771ZM140.72 76.2749L143.712 73.7141L143.627 71.6439L140.536 71.7707L140.421 68.973L150.213 68.5714L150.509 75.8033C150.621 78.517 149.149 79.5302 147.358 79.6036C145.764 79.669 144.392 79.0247 143.952 77.1792L140.868 79.8838L140.72 76.2749ZM147.697 75.5683L147.53 71.4838L146.425 71.5291L146.592 75.6137C146.636 76.6908 146.875 76.695 147.183 76.6824C147.504 76.6692 147.742 76.6454 147.697 75.5683ZM141.935 92.4012L139.166 91.9818L140.791 81.2542L150.481 82.7219L148.856 93.4496L146.088 93.0302L147.293 85.071L146.283 84.918L145.182 92.1851L143.106 91.8705L144.206 84.6034L143.141 84.442L141.935 92.4012ZM130.302 112.373L132.603 113.969L130.911 116.408L128.611 114.812L130.302 112.373ZM104.354 137.871L103.001 135.42L112.499 130.175L117.236 138.753L107.738 143.999L106.385 141.547L113.432 137.656L112.938 136.761L106.503 140.314L105.488 138.476L111.922 134.923L111.401 133.979L104.354 137.871ZM97.8099 137.097L101.745 135.94L98.2923 142.062L104.51 145.342L100.588 146.495L96.8787 144.55L94.8124 148.193L90.8904 149.346L94.3569 143.22L88.1259 139.944L92.0613 138.787L95.7571 140.736L97.8099 137.097ZM79.7919 143.75L84.2198 143.451L84.0109 140.364L86.8045 140.175L87.4662 149.952L80.2447 150.441C77.5349 150.625 76.483 149.18 76.362 147.392C76.2353 145.521 77.0961 143.933 79.7919 143.75ZM80.4049 147.624L84.4835 147.348L84.4089 146.244L80.3302 146.52C79.2546 146.593 79.2567 146.832 79.2775 147.139C79.2993 147.46 79.3293 147.697 80.4049 147.624ZM63.4565 142.337L63.7956 139.557L74.5657 140.871L73.3789 150.599L70.5995 150.26L71.4473 143.312L63.4565 142.337ZM55.6748 144.368C56.7241 144.718 57.8309 144.319 58.2649 143.018C58.7077 141.69 58.0526 140.733 56.9901 140.379L54.9316 139.693C53.9355 139.361 52.7844 139.715 52.3415 141.043C51.9075 142.344 52.6069 143.345 53.6296 143.686L55.6748 144.368ZM58.0087 137.767C60.3594 138.551 61.9397 140.849 60.9211 143.904C59.9158 146.918 57.2594 147.848 54.9219 147.068L52.7438 146.342C50.3267 145.536 48.6667 143.167 49.672 140.153C50.695 137.085 53.3868 136.226 55.8173 137.037L58.0087 137.767ZM43.6524 131.299L44.2197 135.195L46.0154 136.229L47.5592 133.548L49.9857 134.945L45.0959 143.438L38.8233 139.826C36.4695 138.471 36.3989 136.686 37.2931 135.133C38.0894 133.75 39.3667 132.934 41.1619 133.548L40.5222 129.496L43.6524 131.299ZM40.5237 137.574L44.0664 139.614L44.6183 138.656L41.0755 136.616C40.1413 136.078 40.0104 136.277 39.8568 136.544C39.6961 136.823 39.5895 137.037 40.5237 137.574ZM29.372 123.713L31.2052 121.597L39.4065 128.7L32.9902 136.108L24.789 129.004L26.6222 126.888L32.707 132.158L33.3761 131.386L27.8204 126.574L29.1953 124.986L34.751 129.798L35.4568 128.984L29.372 123.713ZM22.4628 109.841L23.7756 112.393L15.0608 116.876L13.4023 113.651L17.795 107.377L10.1556 107.339L8.45227 104.028L17.167 99.5453L18.531 102.197L13.9869 104.534L19.7477 104.563L21.2141 107.413L17.8565 112.211L22.4628 109.841ZM8.739 95.3082C9.0076 96.381 9.93821 97.1006 11.2691 96.7674C12.6272 96.4274 13.0819 95.3611 12.8099 94.2746L12.2829 92.1695C12.0279 91.151 11.1108 90.3703 9.75274 90.7103C8.42182 91.0435 7.95361 92.171 8.21541 93.2167L8.739 95.3082ZM15.56 93.7304C16.1618 96.1342 15.0727 98.7016 11.9491 99.4836C8.86627 100.255 6.65522 98.5142 6.05683 96.124L5.49923 93.8967C4.88044 91.425 5.98649 88.7524 9.06935 87.9806C12.2065 87.1952 14.3769 89.0043 14.999 91.4896L15.56 93.7304ZM13.2952 78.1449L10.3157 80.7197L10.4103 82.7895L13.5011 82.6482L13.629 85.4453L3.83918 85.8928L3.50863 78.6624C3.38459 75.9492 4.85153 74.9292 6.64166 74.8473C8.236 74.7744 9.61057 75.4123 10.0592 77.2558L13.1302 74.5367L13.2952 78.1449ZM6.32169 78.8841L6.50838 82.9679L7.61323 82.9174L7.42653 78.8336C7.3773 77.7568 7.13891 77.7536 6.83123 77.7677C6.50957 77.7824 6.27246 77.8073 6.32169 78.8841ZM11.9775 62.0276L14.7488 62.4274L13.1992 73.1662L3.4997 71.7666L5.04927 61.0278L7.82057 61.4277L6.67089 69.3952L7.68241 69.5412L8.73212 62.2665L10.8106 62.5664L9.76088 69.8411L10.8278 69.995L11.9775 62.0276ZM21.6373 44.9583L19.2499 43.4953L20.8007 40.9647L23.1881 42.4277L21.6373 44.9583Z" fill="white"/>
<path d="M67.1268 117.999C68.2307 119.586 70.4119 119.977 71.9987 118.873L97.8572 100.885C99.444 99.7808 99.8355 97.5995 98.7317 96.0127C97.6278 94.4259 95.4466 94.0344 93.8598 95.1383L70.8744 111.128L54.8846 88.1428C53.7808 86.556 51.5995 86.1645 50.0127 87.2683C48.4259 88.3722 48.0344 90.5534 49.1383 92.1402L67.1268 117.999ZM70 116L73.4449 116.618L87.445 38.6183L84 38L80.5551 37.3817L66.5551 115.382L70 116Z" fill="white"/>
</svg>
